<svg width="20" height="21" viewBox="0 0 20 21" fill="none" xmlns="http://www.w3.org/2000/svg">
<path d="M10.1923 19.875C10.1923 19.9805 10.1082 20.0625 10 20.0625C8.83414 20.0625 7.88461 19.1367 7.88461 18C7.88461 17.8945 7.96875 17.8125 8.07692 17.8125C8.1851 17.8125 8.26923 17.8945 8.26923 18C8.26923 18.9258 9.05048 19.6875 10 19.6875C10.1082 19.6875 10.1923 19.7695 10.1923 19.875ZM20 16.5C16.863 13.9102 15.3846 9.9375 15.3846 6C15.3846 3.36328 13.6779 1.86328 11.0577 1.55859C11.1178 1.42969 11.1538 1.27734 11.1538 1.125C11.1538 0.503907 10.637 0 10 0C9.36298 0 8.84615 0.503907 8.84615 1.125C8.84615 1.27734 8.88221 1.42969 8.94231 1.55859C6.32212 1.86328 4.61538 3.36328 4.61538 6C4.61538 9.9375 3.13702 13.9102 0 16.5C0 17.3203 0.697115 18 1.53846 18H6.92308C6.92308 19.6523 8.30529 21 10 21C11.6947 21 13.0769 19.6523 13.0769 18H18.4615C19.3029 18 20 17.3203 20 16.5Z" fill="#000C52"/>
</svg>
