<svg width="22" height="15" viewBox="0 0 22 15" fill="none" xmlns="http://www.w3.org/2000/svg">
<path d="M21.5 1.125C21.5 0.820313 21.3125 0.550781 21.043 0.433593C20.9492 0.398437 20.8438 0.375 20.75 0.375C20.5508 0.375 20.3633 0.445313 20.2227 0.597656L15.5 5.30859V3.375C15.5 1.51172 13.9883 0 12.125 0H3.875C2.01172 0 0.5 1.51172 0.5 3.375V11.625C0.5 13.4883 2.01172 15 3.875 15H12.125C13.9883 15 15.5 13.4883 15.5 11.625V9.67969L20.2227 14.4023C20.3633 14.5547 20.5508 14.625 20.75 14.625C20.8438 14.625 20.9492 14.6016 21.043 14.5664C21.3125 14.4492 21.5 14.1797 21.5 13.875V1.125Z" fill="#000C52"/>
</svg>
