<svg width="137" height="23" viewBox="0 0 137 23" fill="none" xmlns="http://www.w3.org/2000/svg">
<path d="M6.35903 3.82233C4.93559 3.82233 3.62809 4.33387 2.60266 5.18476V3.87666H0V20.6931H2.60266V14.5496C3.62727 15.4005 4.93559 15.912 6.35903 15.912C9.63846 15.912 12.3061 13.2006 12.3061 9.86719C12.3061 6.53382 9.63846 3.82233 6.35903 3.82233ZM6.35903 13.3527C4.46851 13.3527 2.93076 11.7896 2.93076 9.86719C2.93076 7.94474 4.46851 6.3817 6.35903 6.3817C8.24956 6.3817 9.78812 7.94474 9.78812 9.86719C9.78812 11.7896 8.25038 13.3527 6.35903 13.3527Z" fill="#00C5D2"/>
<path d="M30.2056 15.912C26.9262 15.912 24.2585 13.2006 24.2585 9.86719C24.2585 6.53382 26.9262 3.82233 30.2056 3.82233C32.2885 3.82233 34.184 4.90476 35.2752 6.71687L33.1273 8.0534C32.4966 7.00691 31.4045 6.3817 30.2048 6.3817C28.3142 6.3817 26.7757 7.94474 26.7757 9.86719C26.7757 11.7896 28.3134 13.3518 30.2048 13.3518C31.4037 13.3518 32.4966 12.7266 33.1273 11.6801L35.2752 13.0167C34.1832 14.8288 32.2877 15.9112 30.2048 15.9112L30.2056 15.912Z" fill="#00C5D2"/>
<path d="M20.5441 1.56387C20.5441 0.712978 21.2225 0 22.0596 0C22.8967 0 23.5982 0.712978 23.5982 1.56387C23.5982 2.41477 22.8967 3.10518 22.0596 3.10518C21.2225 3.10518 20.5441 2.4156 20.5441 1.56387ZM20.7135 4.25447H23.3161V15.5911H20.7135V4.25447Z" fill="#00C5D2"/>
<path d="M15.4786 10.4122C16.6085 11.1059 17.1603 11.8983 17.1668 12.8328C17.1726 13.6853 16.754 14.6466 16.0929 15.5919H19.068C19.4858 14.7017 19.7382 13.7664 19.7325 12.8152C19.7243 11.5163 19.2095 9.65739 16.8067 8.18045C15.4613 7.3538 14.7969 6.36248 14.7739 5.14883C14.7681 4.8613 14.8018 4.56206 14.8684 4.25447H12.2625C12.223 4.56624 12.2033 4.88136 12.2099 5.19898C12.2378 6.6776 12.8274 8.78226 15.4802 10.4122H15.4786Z" fill="#00C5D2"/>
<path d="M41.677 3.91427C44.9565 3.91427 47.6241 6.62577 47.6241 9.95913C47.6241 13.2925 44.9565 16.004 41.677 16.004C38.3976 16.004 35.73 13.2925 35.73 9.95913C35.73 6.62577 38.3976 3.91427 41.677 3.91427ZM38.2488 9.95913C38.2488 11.8807 39.7865 13.4446 41.677 13.4446C43.5676 13.4446 45.1061 11.8816 45.1061 9.95913H38.2488Z" fill="#00C5D2"/>
<path d="M132.946 15.6722H130.38V9.55542C130.38 6.63663 132.716 4.26199 135.588 4.26199H137V6.86984H135.588C134.131 6.86984 132.946 8.07429 132.946 9.55542V15.6722Z" fill="#170078"/>
<path d="M61.0633 3.9218C59.5658 3.9218 58.4245 4.49436 57.6679 5.62275C56.9698 4.49352 55.9081 3.9218 54.5102 3.9218C53.1846 3.9218 52.1493 4.40827 51.4265 5.36782V4.21519H48.8419V15.6931H51.4265V9.27625C51.4265 8.32756 51.6502 7.60037 52.0901 7.11642C52.5284 6.63497 53.1032 6.39006 53.7989 6.39006C54.4337 6.39006 54.9296 6.59568 55.2725 7.00107C55.6187 7.41063 55.7938 8.00158 55.7938 8.75719V15.6931H58.3792V9.27625C58.3792 8.31084 58.5914 7.58031 59.0108 7.10388C59.4269 6.63079 59.9976 6.39006 60.7072 6.39006C61.3429 6.39006 61.8511 6.59652 62.2162 7.00274C62.583 7.41147 62.7696 8.00158 62.7696 8.75635V15.6922H65.3542V8.59838C65.3542 7.18078 64.957 6.03399 64.1742 5.19146C63.3888 4.34809 62.3428 3.92013 61.0633 3.92013V3.9218Z" fill="#170078"/>
<path d="M75.8035 5.63529C74.894 4.49854 73.6194 3.9218 72.0092 3.9218C70.3991 3.9218 69.127 4.50857 68.0325 5.66706C66.9396 6.82387 66.3854 8.26654 66.3854 9.95496C66.3854 11.6434 66.9396 13.0668 68.0325 14.2312C69.1262 15.3963 70.4649 15.9881 72.0092 15.9881C73.5536 15.9881 74.894 15.4055 75.8035 14.2554V15.6947H78.3888V4.21602H75.8035V5.63529ZM72.3867 13.473C71.4098 13.473 70.5874 13.137 69.9427 12.4742C69.2972 11.8114 68.9699 10.9638 68.9699 9.95496C68.9699 8.94609 69.2972 8.09937 69.9427 7.43655C70.5883 6.77372 71.4106 6.43687 72.3867 6.43687C73.3628 6.43687 74.1851 6.77288 74.8306 7.43655C75.4762 8.10021 75.8035 8.94776 75.8035 9.95496C75.8035 10.9622 75.4762 11.8105 74.8306 12.4742C74.1859 13.137 73.3636 13.473 72.3867 13.473Z" fill="#170078"/>
<path d="M85.6253 3.9218C84.1467 3.9218 83.0218 4.43585 82.2751 5.45141V4.21519H79.6906V15.6931H82.2751V9.5479C82.2751 8.47968 82.5276 7.67811 83.0259 7.16406C83.5234 6.65085 84.1887 6.3909 85.0036 6.3909C85.7445 6.3909 86.3349 6.60906 86.7593 7.04035C87.1836 7.47165 87.3982 8.10272 87.3982 8.91516V15.6931H89.9828V8.66691C89.9828 7.20334 89.5782 6.03399 88.7797 5.19146C87.9796 4.34809 86.9188 3.92097 85.6253 3.92097V3.9218Z" fill="#170078"/>
<path d="M100.457 5.63529C99.5473 4.49854 98.2727 3.9218 96.6626 3.9218C95.0525 3.9218 93.7803 4.50857 92.6858 5.66706C91.5929 6.82387 91.0387 8.26654 91.0387 9.95496C91.0387 11.6434 91.5929 13.0668 92.6858 14.2312C93.7795 15.3963 95.1182 15.9881 96.6626 15.9881C98.2069 15.9881 99.5473 15.4055 100.457 14.2554V15.6947H103.042V4.21602H100.457V5.63529ZM97.04 13.473C96.0631 13.473 95.2408 13.137 94.5961 12.4742C93.9505 11.8114 93.6233 10.9638 93.6233 9.95496C93.6233 8.94609 93.9505 8.09937 94.5961 7.43655C95.2416 6.77372 96.0639 6.43687 97.04 6.43687C98.0161 6.43687 98.8384 6.77288 99.484 7.43655C100.129 8.10021 100.457 8.94776 100.457 9.95496C100.457 10.9622 100.129 11.8105 99.484 12.4742C98.8393 13.137 98.0169 13.473 97.04 13.473Z" fill="#170078"/>
<path d="M123.351 3.9218C121.615 3.9218 120.173 4.50523 119.064 5.65452C117.956 6.80381 117.394 8.25066 117.394 9.95412C117.394 11.6576 117.964 13.1429 119.087 14.2771C120.211 15.4114 121.705 15.9864 123.529 15.9864C125.699 15.9864 127.361 15.1447 128.471 13.4839L128.527 13.4003L126.39 12.1315L126.34 12.2034C125.725 13.1053 124.787 13.5625 123.551 13.5625C122.656 13.5625 121.89 13.3368 121.272 12.8913C120.687 12.4692 120.297 11.8624 120.113 11.0875H128.918L128.93 11.0065C128.991 10.5743 129.019 10.2383 129.019 9.97753C129.019 8.30499 128.484 6.86316 127.429 5.6913C126.371 4.51776 124.999 3.9218 123.351 3.9218ZM121.167 7.04704C121.739 6.56726 122.467 6.3232 123.329 6.3232C124.088 6.3232 124.761 6.55222 125.326 7.00274C125.866 7.4332 126.224 8.07513 126.393 8.91098H120.089C120.258 8.13114 120.62 7.50425 121.167 7.04621V7.04704Z" fill="#170078"/>
<path d="M116.23 9.96666C116.23 9.86719 116.227 9.76856 116.222 9.66993V4.21519H113.711V5.03181C112.741 4.33388 111.558 3.9218 110.282 3.9218C107.002 3.9218 104.335 6.6333 104.335 9.96666C104.335 13.3 107.002 16.0115 110.282 16.0115C111.518 16.0115 112.667 15.6262 113.619 14.9675V15.9864C113.619 17.45 112.76 18.8049 111.409 19.3131C109.895 19.8832 108.298 19.431 107.34 18.2909L105.333 19.9199C106.965 21.865 109.674 22.6557 112.264 21.7379C114.658 20.8895 116.221 18.5375 116.221 15.9597V10.2634C116.226 10.1648 116.228 10.0661 116.228 9.96666H116.23ZM106.854 9.96666C106.854 8.04504 108.392 6.48117 110.283 6.48117C112.173 6.48117 113.712 8.04504 113.712 9.96666H106.854Z" fill="#170078"/>
</svg>
